<?xml version="1.0" encoding="iso-8859-1"?>
<!-- Generator: Adobe Illustrator 16.0.0, SVG Export Plug-In . SVG Version: 6.00 Build 0)  -->
<!DOCTYPE svg PUBLIC "-//W3C//DTD SVG 1.1//EN" "http://www.w3.org/Graphics/SVG/1.1/DTD/svg11.dtd">
<svg version="1.1" id="Capa_1" xmlns="http://www.w3.org/2000/svg" xmlns:xlink="http://www.w3.org/1999/xlink" x="0px" y="0px"
	 width="304.642px" height="304.642px" viewBox="0 0 304.642 304.642" style="enable-background:new 0 0 304.642 304.642;"
	 xml:space="preserve">
<g>
	<g>
		<path d="M132.021,224.724c61.955,0,112.359-50.404,112.359-112.355c0-61.955-50.404-112.359-112.359-112.359
			S19.656,50.405,19.656,112.362S70.066,224.724,132.021,224.724z"/>
		<path d="M240.141,220.479c59.789-59.79,59.796-157.08,0-216.878c-4.798-4.801-12.599-4.801-17.384,0
			c-4.804,4.804-4.804,12.586,0,17.39c50.2,50.206,50.2,131.886-0.007,182.092c-50.199,50.2-131.883,50.2-182.095,0
			c-4.801-4.798-12.586-4.798-17.39,0c-4.801,4.804-4.801,12.593,0,17.39c28.478,28.469,65.449,43.361,102.829,44.712v14.862H94.833
			c-6.789,0-12.298,5.506-12.298,12.298c0,6.785,5.509,12.298,12.298,12.298h87.108c6.792,0,12.299-5.513,12.299-12.298
			c0-6.792-5.507-12.298-12.299-12.298H150.69v-15.943C183.407,260.068,215.07,245.548,240.141,220.479z"/>
	</g>
</g>
<g>
</g>
<g>
</g>
<g>
</g>
<g>
</g>
<g>
</g>
<g>
</g>
<g>
</g>
<g>
</g>
<g>
</g>
<g>
</g>
<g>
</g>
<g>
</g>
<g>
</g>
<g>
</g>
<g>
</g>
</svg>
