<svg height="496pt" viewBox="0 0 496 496" width="496pt" xmlns="http://www.w3.org/2000/svg"><path d="m392 288c-57.34375 0-104 46.65625-104 104s46.65625 104 104 104 104-46.65625 104-104-46.65625-104-104-104zm0 192c-48.519531 0-88-39.480469-88-88s39.480469-88 88-88 88 39.480469 88 88-39.480469 88-88 88zm0 0"/><path d="m392 416c-4.414062 0-8-3.59375-8-8h-16c0 10.414062 6.710938 19.214844 16 22.527344v9.472656h16v-9.472656c9.289062-3.3125 16-12.113282 16-22.527344 0-13.230469-10.769531-24-24-24-4.414062 0-8-3.59375-8-8s3.585938-8 8-8 8 3.59375 8 8h16c0-10.414062-6.710938-19.214844-16-22.527344v-9.472656h-16v9.472656c-9.289062 3.3125-16 12.113282-16 22.527344 0 13.230469 10.769531 24 24 24 4.414062 0 8 3.59375 8 8s-3.585938 8-8 8zm0 0"/><path d="m392 320c-16.097656 0-31.34375 5.246094-44.113281 15.167969l9.816406 12.632812c9.9375-7.722656 21.800781-11.800781 34.296875-11.800781 30.871094 0 56 25.121094 56 56 0 12.496094-4.078125 24.359375-11.808594 34.296875l12.640625 9.816406c9.929688-12.777343 15.167969-28.023437 15.167969-44.113281 0-39.695312-32.296875-72-72-72zm0 0"/><path d="m392 448c-30.871094 0-56-25.121094-56-56 0-12.496094 4.078125-24.359375 11.808594-34.296875l-12.640625-9.816406c-9.929688 12.777343-15.167969 28.023437-15.167969 44.113281 0 39.695312 32.296875 72 72 72 16.097656 0 31.34375-5.246094 44.113281-15.167969l-9.816406-12.632812c-9.9375 7.722656-21.800781 11.800781-34.296875 11.800781zm0 0"/><path d="m32 336h-16v40h-16v120h48v-120h-16zm0 144h-16v-88h16zm0 0"/><path d="m104 336h-16v40h-16v56h16v64h16v-64h16v-56h-16zm0 80h-16v-24h16zm0 0"/><path d="m176 336h-16v80h-16v48h16v32h16v-32h16v-48h-16zm0 112h-16v-16h16zm0 0"/><path d="m248 336h-16v16h-16v72h16v72h16v-72h16v-72h-16zm0 72h-16v-40h16zm0 0"/><path d="m283.617188 249.28125c-2.90625-14.539062-13.527344-26.210938-27.738282-30.472656l-55.878906-16.761719v-15.855469c6.664062-7.566406 11.542969-16.710937 14.046875-26.800781 14.761719-2.847656 25.953125-15.816406 25.953125-31.390625v-40c0-48.519531-39.480469-88-88-88s-88 39.480469-88 88v40c0 15.574219 11.191406 28.542969 25.953125 31.390625 2.503906 10.089844 7.382813 19.234375 14.046875 26.800781v15.855469l-55.878906 16.769531c-14.199219 4.253906-24.832032 15.9375-27.738282 30.472656l-14.144531 70.710938h291.523438zm-163.617188-49.9375c9.425781 5.472656 20.335938 8.65625 32 8.65625s22.574219-3.183594 32-8.65625v4.128906l-32 19.199219-32-19.199219zm73.089844 17.335938 6.910156 2.074218v17.933594l-16 16-19.097656-19.09375zm-41.089844-24.679688c-26.472656 0-48-21.527344-48-48v-26.230469l32-10.671875v12.902344h8c19.167969 0 38.335938-3.9375 56-11.398438v35.398438c0 26.472656-21.527344 48-48 48zm64-50.222656v-27.546875c4.761719 2.777343 8 7.882812 8 13.777343 0 5.894532-3.238281 10.992188-8 13.769532zm-64-125.777344c39.703125 0 72 32.304688 72 72v12.449219c-2.480469-1.449219-5.152344-2.578125-8-3.3125v-9.136719h-16v2.992188c-14.960938 7.3125-31.382812 11.695312-48 12.761718v-18.84375l-48 16v-12.910156h-16v9.136719c-2.847656.742187-5.519531 1.863281-8 3.3125v-12.449219c0-39.695312 32.296875-72 72-72zm-72 112c0-5.894531 3.238281-11 8-13.777344v27.546875c-4.761719-2.769531-8-7.875-8-13.769531zm30.910156 88.679688 28.1875 16.914062-19.097656 19.09375-16-16v-17.933594zm120.035156 87.320312-7.015624-49.136719-15.839844 2.265625 6.6875 46.871094h-125.554688l6.699219-46.863281-15.84375-2.265625-7.023437 49.128906h-47.292969l10.308593-51.574219c1.746094-8.722656 8.128907-15.730469 16.640626-18.28125l35.289062-10.59375v19.761719l32 32 32-32 32 32 32-32v-19.761719l35.289062 10.585938c8.511719 2.550781 14.894532 9.558593 16.640626 18.277343l10.308593 51.585938zm0 0"/><path d="m467.257812 83.6875c-1.226562-3.625-2.683593-7.160156-4.363281-10.566406l16.25-24.367188-31.898437-31.898437-24.375 16.242187c-3.40625-1.671875-6.933594-3.128906-10.566406-4.363281l-5.753907-28.734375h-45.109375l-5.753906 28.734375c-3.632812 1.234375-7.167969 2.691406-10.566406 4.363281l-24.378906-16.242187-31.894532 31.898437 16.25 24.367188c-1.683594 3.40625-3.136718 6.941406-4.363281 10.566406l-28.734375 5.753906v45.117188l28.742188 5.753906c1.226562 3.625 2.683593 7.160156 4.363281 10.566406l-16.25 24.367188 31.90625 31.898437 24.367187-16.25c3.40625 1.671875 6.933594 3.136719 10.566406 4.363281l5.753907 28.742188h45.109375l5.753906-28.734375c3.632812-1.234375 7.167969-2.691406 10.566406-4.363281l24.367188 16.25 31.90625-31.894532-16.25-24.371093c1.683594-3.40625 3.136718-6.941407 4.363281-10.566407l28.734375-5.761718v-45.117188zm12.742188 37.753906-25.382812 5.078125-1.3125 4.753907c-1.570313 5.664062-3.808594 11.09375-6.664063 16.132812l-2.433594 4.289062 14.34375 21.511719-13.34375 13.351563-21.519531-14.34375-4.28125 2.425781c-5.015625 2.847656-10.453125 5.085937-16.148438 6.671875l-4.746093 1.3125-5.0625 25.375h-18.890625l-5.070313-25.375-4.746093-1.3125c-5.695313-1.585938-11.132813-3.824219-16.148438-6.671875l-4.28125-2.425781-21.519531 14.34375-13.34375-13.351563 14.34375-21.511719-2.433594-4.289062c-2.855469-5.039062-5.09375-10.46875-6.664063-16.132812l-1.3125-4.753907-25.382812-5.078125v-18.882812l25.382812-5.078125 1.3125-4.753907c1.570313-5.664062 3.808594-11.09375 6.664063-16.132812l2.433594-4.289062-14.34375-21.511719 13.351562-13.351563 21.503907 14.335938 4.289062-2.425782c5.015625-2.839843 10.453125-5.085937 16.148438-6.664062l4.746093-1.3125 5.0625-25.375h18.890625l5.070313 25.375 4.746093 1.3125c5.695313 1.585938 11.132813 3.824219 16.148438 6.664062l4.289062 2.425782 21.503907-14.335938 13.351562 13.351563-14.34375 21.511719 2.433594 4.289062c2.855469 5.039062 5.09375 10.46875 6.664063 16.132812l1.3125 4.753907 25.382812 5.078125zm0 0"/><path d="m384 56c-30.871094 0-56 25.121094-56 56s25.128906 56 56 56 56-25.121094 56-56-25.128906-56-56-56zm0 96c-22.054688 0-40-17.945312-40-40s17.945312-40 40-40 40 17.945312 40 40-17.945312 40-40 40zm0 0"/></svg>