<svg height="512pt" viewBox="0 0 512 512" width="512pt" xmlns="http://www.w3.org/2000/svg"><path d="m467 240c-5.257812 0-10.304688.914062-15 2.578125v-17.578125c0-19.554688-12.539062-36.226562-30-42.421875v-167.578125c0-8.285156-6.714844-15-15-15h-392c-8.285156 0-15 6.714844-15 15v280c0 8.285156 6.714844 15 15 15h227v75.675781c-8.261719-7.40625-18.816406-11.457031-30-11.457031-12.019531 0-23.320312 4.679688-31.820312 13.179688s-13.179688 19.800781-13.179688 31.820312 4.683594 23.320312 13.179688 31.820312l44.851562 44.851563c10.390625 10.386719 24.203125 16.109375 38.894531 16.109375h193.074219c30.328125 0 55-24.671875 55-55v-172c0-24.8125-20.1875-45-45-45zm-90-48.503906c-7.96875-7.140625-18.484375-11.496094-30-11.496094-24.8125 0-45 20.1875-45 45v17.578125c-4.695312-1.664063-9.742188-2.578125-15-2.578125-23.121094 0-42.21875 17.53125-44.714844 40h-153.792968c-5.980469-29.34375-29.148438-52.511719-58.492188-58.492188v-133.015624c29.34375-5.980469 52.511719-29.148438 58.492188-58.492188h245.019531c5.976562 29.34375 29.144531 52.511719 58.488281 58.492188v94.085937c-5.585938 1.984375-10.671875 5.035156-15 8.917969zm15-134.074219c-12.765625-4.527344-22.894531-14.65625-27.421875-27.421875h27.421875zm-334.578125-27.421875c-4.527344 12.765625-14.65625 22.894531-27.421875 27.421875v-27.421875zm-27.421875 222.578125c12.765625 4.527344 22.894531 14.65625 27.421875 27.421875h-27.421875zm452 204.421875c0 13.785156-11.214844 25-25 25h-193.074219c-6.679687 0-12.957031-2.601562-17.679687-7.320312l-44.851563-44.855469c-2.835937-2.832031-4.394531-6.601563-4.394531-10.605469 0-4.007812 1.558594-7.773438 4.394531-10.609375 2.832031-2.832031 6.597657-4.390625 10.605469-4.390625s7.773438 1.558594 10.605469 4.390625l23.785156 23.789063c4.292969 4.289062 10.746094 5.574218 16.347656 3.25 5.605469-2.320313 9.261719-7.792969 9.261719-13.859376v-136.789062c0-8.269531 6.726562-15 15-15 8.269531 0 15 6.730469 15 15v60c0 8.285156 6.714844 15 15 15 8.28125 0 15-6.714844 15-15v-120c0-8.269531 6.726562-15 15-15 8.269531 0 15 6.730469 15 15v120c0 8.285156 6.714844 15 15 15 8.28125 0 15-6.714844 15-15v-120c0-8.269531 6.726562-15 15-15 8.269531 0 15 6.730469 15 15v120c0 8.285156 6.714844 15 15 15 8.28125 0 15-6.714844 15-15v-60c0-8.269531 6.726562-15 15-15 8.269531 0 15 6.730469 15 15zm0 0"/><path d="m211 110h30c8.285156 0 15-6.714844 15-15s-6.714844-15-15-15h-15v-5c0-8.285156-6.714844-15-15-15s-15 6.714844-15 15v7.578125c-17.460938 6.195313-30 22.867187-30 42.421875 0 24.8125 20.1875 45 45 45 8.269531 0 15 6.730469 15 15s-6.730469 15-15 15h-30c-8.285156 0-15 6.714844-15 15s6.714844 15 15 15h15v5c0 8.285156 6.714844 15 15 15s15-6.714844 15-15v-7.578125c17.460938-6.195313 30-22.867187 30-42.421875 0-24.8125-20.1875-45-45-45-8.269531 0-15-6.730469-15-15s6.730469-15 15-15zm0 0"/></svg>