<svg id="Layer_5" enable-background="new 0 0 64 64" height="512" viewBox="0 0 64 64" width="512" xmlns="http://www.w3.org/2000/svg"><path d="m21.555 43.461-1.898.629c.205.62.459 1.228.755 1.807l1.781-.908c-.25-.49-.464-1.005-.638-1.528z"/><path d="m41.167 33.918c1.199 1.804 1.833 3.907 1.833 6.082 0 6.065-4.935 11-11 11-3.531 0-6.871-1.714-8.937-4.584l-1.623 1.168c2.44 3.392 6.388 5.416 10.56 5.416 7.168 0 13-5.832 13-13 0-2.57-.75-5.056-2.167-7.189z"/><path d="m60 15c-1.654 0-3 1.346-3 3 0 .568.168 1.094.443 1.547l-5.433 6.64c-.317-.114-.654-.187-1.01-.187-.147 0-.288.023-.43.043l-5.759-5.759-5.313 4.132c-.443-.258-.95-.416-1.498-.416-.078 0-.151.017-.228.023-.004-.002-.008-.003-.012-.005l-.877-7.018h-9.766l-.875 7.006c-.492.179-.984.385-1.474.617l-5.579-4.339-6.905 6.905 4.339 5.579c-.027.058-.046.116-.073.174l-9.562-3.825c.002-.039.012-.077.012-.117 0-1.654-1.346-3-3-3s-3 1.346-3 3 1.346 3 3 3c.895 0 1.691-.402 2.241-1.026l8.548 3.419-5.789.724v9.766l7.006.876c.179.491.385.983.617 1.473l-4.339 5.579 6.905 6.905 5.579-4.339c.489.232.981.438 1.474.617l.875 7.006h9.766l.875-7.006c.492-.179.984-.385 1.474-.617l5.579 4.339 6.905-6.905-4.339-5.579c.232-.489.438-.981.617-1.473l7.006-.876v-9.766l-7.006-.876c-.179-.491-.385-.983-.617-1.473l1.389-1.786c.55.62 1.343 1.018 2.234 1.018 1.654 0 3-1.346 3-3 0-.568-.167-1.094-.443-1.547l5.433-6.641c.317.115.654.188 1.01.188 1.654 0 3-1.346 3-3s-1.346-3-3-3zm-56 15c-.551 0-1-.448-1-1s.449-1 1-1 1 .448 1 1-.449 1-1 1zm44.743-2.955c-.143.165-.267.346-.372.54l-7.428-1.143c-.033-.174-.085-.34-.147-.502l3.848-2.993zm-9.743-.045c0 .552-.449 1-1 1s-1-.448-1-1 .449-1 1-1 1 .448 1 1zm-24.054.355 4.409-4.409 5.187 4.034.568-.295c.778-.404 1.568-.734 2.348-.981l.61-.193.815-6.511h6.234l.739 5.908c-.528.541-.856 1.278-.856 2.092 0 .841.35 1.599.909 2.144l-1.071 2.321c-.894-.297-1.846-.465-2.838-.465-3.469 0-6.48 1.976-7.982 4.858l-2.026-.779c.001-.027.008-.052.008-.079 0-1.654-1.346-3-3-3-.14 0-.274.023-.409.041zm10.233 11.093 3.829 1.473c-.001.027-.008.052-.008.079 0 1.654 1.346 3 3 3s3-1.346 3-3c0-.841-.35-1.599-.909-2.144l1.717-3.721c1.919 1.25 3.192 3.41 3.192 5.865 0 3.859-3.14 7-7 7s-7-3.141-7-7c0-.534.065-1.052.179-1.552zm6.821.552c.551 0 1 .448 1 1s-.449 1-1 1-1-.448-1-1 .449-1 1-1zm.271-1.973c-.091-.008-.178-.027-.271-.027-.91 0-1.716.415-2.267 1.057l-3.836-1.475c1.201-2.135 3.485-3.582 6.103-3.582.693 0 1.361.105 1.994.293zm-13.271-3.027c.551 0 1 .448 1 1s-.449 1-1 1-1-.448-1-1 .449-1 1-1zm26.314-.889c.405.779.735 1.568.981 2.347l.193.611 6.512.814v6.234l-6.511.813-.193.611c-.247.778-.577 1.567-.981 2.347l-.295.569 4.034 5.187-4.409 4.409-5.187-4.034-.568.295c-.778.404-1.568.734-2.348.981l-.61.193-.815 6.512h-6.234l-.814-6.511-.61-.193c-.78-.247-1.57-.577-2.348-.981l-.568-.295-5.187 4.034-4.409-4.409 4.034-5.187-.295-.569c-.405-.779-.735-1.568-.981-2.347l-.193-.611-6.512-.814v-6.234l5.268-.658c.47 1.044 1.515 1.775 2.732 1.775.91 0 1.716-.415 2.267-1.057l2.036.783c-.191.728-.303 1.487-.303 2.274 0 4.963 4.038 9 9 9s9-4.037 9-9c0-3.26-1.748-6.111-4.349-7.691l1.078-2.337c.091.009.178.028.271.028 1.14 0 2.121-.646 2.628-1.584l6.787 1.045-2.396 3.081zm5.686-3.111c-.551 0-1-.448-1-1s.449-1 1-1 1 .448 1 1-.449 1-1 1zm9-11c-.551 0-1-.448-1-1s.449-1 1-1 1 .448 1 1-.449 1-1 1z"/><path d="m25.414 11h-4.414v-10h-2v12h1.586l-5.586 5.586-5.586-5.586h1.586v-8h-2v6h-4.414l10.414 10.414z"/><path d="m9 1h2v2h-2z"/><path d="m43 19h2v-10h-1.586l5.586-5.586 5.586 5.586h-1.586v6h2v-4h4.414l-10.414-10.414-10.414 10.414h4.414z"/><path d="m53 17h2v2h-2z"/></svg>