<?xml version="1.0" encoding="iso-8859-1"?>
<!-- Generator: Adobe Illustrator 19.0.0, SVG Export Plug-In . SVG Version: 6.00 Build 0)  -->
<svg version="1.1" id="Capa_1" xmlns="http://www.w3.org/2000/svg" xmlns:xlink="http://www.w3.org/1999/xlink" x="0px" y="0px"
	 viewBox="0 0 512 512" style="enable-background:new 0 0 512 512;" xml:space="preserve">
<g>
	<g>
		<g>
			<path d="M467.862,423.724h-10.593c0.883-2.648,1.766-5.297,1.766-8.828v-35.31c0-15.007-11.476-26.483-26.483-26.483h-80.331
				c19.421-8.828,37.076-21.186,52.083-36.193c0,0,0,0,0.883,0s0,0,0-0.883c33.545-33.545,53.848-79.448,53.848-130.648
				c0-51.2-20.303-97.103-53.848-130.648c0,0,0,0,0-0.883s0,0-0.883,0C370.759,20.303,324.855,0,273.655,0
				c-51.2,0-97.103,20.303-130.648,53.848c0,0,0,0-0.883,0c0,0,0,0,0,0.883c-33.545,33.545-53.848,79.448-53.848,130.648
				c0,51.2,20.303,97.103,53.848,130.648c0,0,0,0,0,0.883c0,0,0,0,0.883,0c15.007,15.007,32.662,27.365,52.083,36.193H44.138
				c-15.007,0-26.483,11.476-26.483,26.483v35.31c0,15.007,11.476,26.483,26.483,26.483h10.593
				c-0.883,2.648-1.766,5.297-1.766,8.828v35.31c0,15.007,11.476,26.483,26.483,26.483h388.414
				c15.007,0,26.483-11.476,26.483-26.483v-35.31C494.345,435.2,482.869,423.724,467.862,423.724z M161.545,309.848l18.538-18.538
				c3.531-3.531,3.531-8.828,0-12.359c-3.531-3.531-8.828-3.531-12.359,0l-18.538,18.538
				c-24.717-27.366-40.607-63.559-42.372-103.283h25.6c5.297,0,8.828-3.531,8.828-8.828c0-5.297-3.531-8.828-8.828-8.828h-25.6
				c1.766-39.724,17.655-75.917,42.372-103.283l18.538,18.538c1.766,1.766,4.414,2.648,6.179,2.648c1.766,0,4.414-0.883,6.179-2.648
				c3.531-3.531,3.531-8.828,0-12.359L161.545,60.91c27.366-24.717,63.559-40.607,103.283-42.372v25.6
				c0,5.297,3.531,8.828,8.828,8.828s8.828-3.531,8.828-8.828v-25.6c39.724,1.766,75.917,17.655,103.283,42.372l-18.538,18.538
				c-3.531,3.531-3.531,8.828,0,12.359c1.766,1.766,4.414,2.648,6.179,2.648c1.766,0,4.414-0.883,6.179-2.648l18.538-18.538
				c24.717,27.365,40.607,63.559,42.372,103.283h-25.6c-5.297,0-8.828,3.531-8.828,8.828c0,5.297,3.531,8.828,8.828,8.828h25.6
				c-1.766,39.724-17.655,75.917-42.372,103.283l-18.538-18.538c-3.531-3.531-8.828-3.531-12.359,0
				c-3.531,3.531-3.531,8.828,0,12.359l18.538,18.538c-27.366,24.717-63.559,40.607-103.283,42.372v-25.6
				c0-5.297-3.531-8.828-8.828-8.828s-8.828,3.531-8.828,8.828v25.6C225.103,350.455,188.91,334.566,161.545,309.848z
				 M44.138,423.724c-5.297,0-8.828-3.531-8.828-8.828v-35.31c0-5.297,3.531-8.828,8.828-8.828h44.138v26.483
				c0,5.297,3.531,8.828,8.828,8.828s8.828-3.531,8.828-8.828v-26.483h123.586v26.483c0,5.297,3.531,8.828,8.828,8.828
				c5.297,0,8.828-3.531,8.828-8.828v-26.483h123.586v26.483c0,5.297,3.531,8.828,8.828,8.828c5.297,0,8.828-3.531,8.828-8.828
				v-26.483h44.138c5.297,0,8.828,3.531,8.828,8.828v35.31c0,5.297-3.531,8.828-8.828,8.828H317.793v-26.483
				c0-5.297-3.531-8.828-8.828-8.828s-8.828,3.531-8.828,8.828v26.483H176.552v-26.483c0-5.297-3.531-8.828-8.828-8.828
				c-5.297,0-8.828,3.531-8.828,8.828v26.483H79.448H44.138z M476.69,485.517c0,5.297-3.531,8.828-8.828,8.828H353.103v-26.483
				c0-5.297-3.531-8.828-8.828-8.828c-5.297,0-8.828,3.531-8.828,8.828v26.483H211.862v-26.483c0-5.297-3.531-8.828-8.828-8.828
				s-8.828,3.531-8.828,8.828v26.483H79.448c-5.297,0-8.828-3.531-8.828-8.828v-35.31c0-5.297,3.531-8.828,8.828-8.828h44.138
				v26.483c0,5.297,3.531,8.828,8.828,8.828c5.297,0,8.828-3.531,8.828-8.828v-26.483h123.586v26.483
				c0,5.297,3.531,8.828,8.828,8.828c5.297,0,8.828-3.531,8.828-8.828v-26.483h123.586v26.483c0,5.297,3.531,8.828,8.828,8.828
				c5.297,0,8.828-3.531,8.828-8.828v-26.483h8.828h35.31c5.297,0,8.828,3.531,8.828,8.828V485.517z"/>
			<path d="M388.414,185.379c0-63.559-51.2-114.759-114.759-114.759s-114.759,51.2-114.759,114.759s51.2,114.759,114.759,114.759
				S388.414,248.938,388.414,185.379z M176.552,185.379c0-53.848,43.255-97.103,97.103-97.103s97.103,43.255,97.103,97.103
				c0,53.848-43.255,97.103-97.103,97.103S176.552,239.228,176.552,185.379z"/>
			<path d="M315.145,143.89c-3.531-3.531-8.828-3.531-12.359,0l-70.621,70.621c-3.531,3.531-3.531,8.828,0,12.359
				c1.766,1.766,3.531,2.648,6.179,2.648c2.648,0,4.414-0.883,6.179-2.648l70.621-70.621
				C318.676,152.717,318.676,147.421,315.145,143.89z"/>
			<path d="M238.345,194.207c2.648,0,4.414-0.883,6.179-2.648l35.31-35.31c3.531-3.531,3.531-8.828,0-12.359
				c-3.531-3.531-8.828-3.531-12.359,0l-35.31,35.31c-3.531,3.531-3.531,8.828,0,12.359
				C233.931,193.324,235.697,194.207,238.345,194.207z"/>
			<path d="M279.834,226.869l35.31-35.31c3.531-3.531,3.531-8.828,0-12.359c-3.531-3.531-8.828-3.531-12.359,0l-35.31,35.31
				c-3.531,3.531-3.531,8.828,0,12.359c1.766,1.766,4.414,2.648,6.179,2.648C275.421,229.517,278.069,228.634,279.834,226.869z"/>
		</g>
	</g>
</g>
<g>
</g>
<g>
</g>
<g>
</g>
<g>
</g>
<g>
</g>
<g>
</g>
<g>
</g>
<g>
</g>
<g>
</g>
<g>
</g>
<g>
</g>
<g>
</g>
<g>
</g>
<g>
</g>
<g>
</g>
</svg>
